<?xml version="1.0" encoding="utf-8"?>
<!-- Generator: Adobe Illustrator 16.0.4, SVG Export Plug-In . SVG Version: 6.00 Build 0)  -->
<!DOCTYPE svg PUBLIC "-//W3C//DTD SVG 1.1//EN" "http://www.w3.org/Graphics/SVG/1.1/DTD/svg11.dtd" [
	<!ENTITY ns_extend "http://ns.adobe.com/Extensibility/1.0/">
	<!ENTITY ns_ai "http://ns.adobe.com/AdobeIllustrator/10.0/">
	<!ENTITY ns_graphs "http://ns.adobe.com/Graphs/1.0/">
	<!ENTITY ns_vars "http://ns.adobe.com/Variables/1.0/">
	<!ENTITY ns_imrep "http://ns.adobe.com/ImageReplacement/1.0/">
	<!ENTITY ns_sfw "http://ns.adobe.com/SaveForWeb/1.0/">
	<!ENTITY ns_custom "http://ns.adobe.com/GenericCustomNamespace/1.0/">
	<!ENTITY ns_adobe_xpath "http://ns.adobe.com/XPath/1.0/">
]>
<svg version="1.1" id="Layer_1" xmlns:x="&ns_extend;" xmlns:i="&ns_ai;" xmlns:graph="&ns_graphs;"
	 xmlns="http://www.w3.org/2000/svg" xmlns:xlink="http://www.w3.org/1999/xlink" x="0px" y="0px" width="56px" height="71px"
	 viewBox="0 0 56 71" enable-background="new 0 0 56 71" xml:space="preserve">
<metadata>
	<sfw  xmlns="&ns_sfw;">
		<slices></slices>
		<sliceSourceBounds  y="28.911" x="23.489" width="51.02" height="62.358" bottomLeftOrigin="true"></sliceSourceBounds>
	</sfw>
</metadata>
<path d="M51.713,20.485L36.652,5.924c-0.794-0.767-1.854-1.193-2.955-1.193H6.241c-2.351,0-4.252,1.901-4.252,4.252v53.854
	c0,2.35,1.901,4.252,4.252,4.252h42.516c2.351,0,4.252-1.901,4.252-4.252V23.54C53.01,22.389,52.542,21.286,51.713,20.485z
	 M50.176,62.839c0,0.781-0.637,1.417-1.418,1.417H6.242c-0.781,0-1.417-0.636-1.417-1.417V8.984c0-0.781,0.636-1.417,1.417-1.417
	h27.456c0.104,0,0.201,0.035,0.302,0.058v12.697c0,1.562,1.271,2.834,2.834,2.834h13.263c0.037,0.126,0.08,0.252,0.08,0.387
	L50.176,62.839L50.176,62.839z"/>
</svg>
