<?xml version="1.0" encoding="utf-8"?>
<!-- Generator: Adobe Illustrator 16.0.4, SVG Export Plug-In . SVG Version: 6.00 Build 0)  -->
<!DOCTYPE svg PUBLIC "-//W3C//DTD SVG 1.1//EN" "http://www.w3.org/Graphics/SVG/1.1/DTD/svg11.dtd" [
	<!ENTITY ns_extend "http://ns.adobe.com/Extensibility/1.0/">
	<!ENTITY ns_ai "http://ns.adobe.com/AdobeIllustrator/10.0/">
	<!ENTITY ns_graphs "http://ns.adobe.com/Graphs/1.0/">
	<!ENTITY ns_vars "http://ns.adobe.com/Variables/1.0/">
	<!ENTITY ns_imrep "http://ns.adobe.com/ImageReplacement/1.0/">
	<!ENTITY ns_sfw "http://ns.adobe.com/SaveForWeb/1.0/">
	<!ENTITY ns_custom "http://ns.adobe.com/GenericCustomNamespace/1.0/">
	<!ENTITY ns_adobe_xpath "http://ns.adobe.com/XPath/1.0/">
]>
<svg version="1.1" id="Layer_1" xmlns:x="&ns_extend;" xmlns:i="&ns_ai;" xmlns:graph="&ns_graphs;"
	 xmlns="http://www.w3.org/2000/svg" xmlns:xlink="http://www.w3.org/1999/xlink" x="0px" y="0px" width="100px" height="30px"
	 viewBox="0 45 100 30" enable-background="new 0 45 100 30" xml:space="preserve">
<metadata>
	<sfw  xmlns="&ns_sfw;">
		<slices></slices>
		<sliceSourceBounds  x="4.814" y="54.82" height="11.406" width="88.772" bottomLeftOrigin="true"></sliceSourceBounds>
	</sfw>
</metadata>
<path fill="#2C2B29" d="M68.264,54.349c0.449,0.075,0.898,0.075,1.272,0.225c1.722,0.449,2.62,2.545,1.722,4.117
	c-0.225,0.375-0.524,0.599-0.898,0.824c-0.15,0.075-0.299,0.149-0.523,0.299c0.074,0.075,0.148,0.075,0.225,0.075
	c1.197,0.375,1.721,1.272,1.796,2.396c0.149,1.646-0.898,2.844-2.545,2.994c-0.524,0.074-1.048,0.074-1.497,0.074H62.65v-2.245
	h0.973V56.52H62.65v-2.246C64.596,54.349,66.393,54.349,68.264,54.349L68.264,54.349z M66.617,60.936v2.171
	c0,0.075,0.074,0.149,0.149,0.149h1.272c0.299,0,0.599-0.149,0.748-0.449c0.375-0.674,0-1.572-0.748-1.721
	C67.59,60.936,67.141,60.936,66.617,60.936z M66.617,58.84c0.449,0,0.822,0,1.271-0.075c0.524-0.075,0.824-0.524,0.824-1.048
	s-0.3-0.973-0.749-1.048c-0.448-0.075-0.897-0.075-1.347-0.075V58.84z M15.943,54.349v2.246h-0.449
	c-0.225-0.075-0.299,0.075-0.299,0.225c-0.674,2.32-1.422,4.566-2.171,6.886c-0.15,0.523-0.299,1.048-0.524,1.572
	c0,0.074-0.15,0.149-0.225,0.149H8.833l-0.075-0.225c-0.898-2.77-1.796-5.614-2.62-8.383c-0.075-0.225-0.15-0.225-0.374-0.225H5.314
	v-2.246h4.791v2.246H9.132c0.524,2.096,1.048,4.192,1.572,6.212h0.075l1.722-6.212h-0.973v-2.246H15.943z M94.012,59.588h-1.123
	c-0.074,0-0.148,0.075-0.148,0.15v2.844c0,0.6,0.373,0.898,1.047,0.749h0.15v1.796c0,0.15,0,0.225-0.15,0.225
	c-0.823,0.15-1.646,0.225-2.545,0.075c-0.973-0.225-1.422-0.749-1.422-1.722v-4.191h-0.299c-0.449,0-0.375,0.075-0.375-0.375v-1.871
	h0.898v-1.497c0-0.524-0.074-0.449,0.449-0.524c0.748-0.15,1.422-0.299,2.246-0.524v2.545h1.347
	C94.012,58.091,94.012,58.84,94.012,59.588z M23.503,57.343h3.219l0.075,1.123c0.225-0.225,0.375-0.449,0.524-0.599
	c0.898-0.749,1.946-0.898,3.069-0.524c0.823,0.299,1.198,0.973,1.198,1.871v3.968h0.673v2.245h-3.593v-5.015
	c0-0.449-0.149-0.673-0.449-0.749c-0.375-0.075-0.674,0-0.898,0.299l-0.149,0.225l-0.075,0.225v2.77h0.524v2.245h-4.117v-2.245
	h0.599v-3.593h-0.599V57.343z M43.114,59.514H42.59v-2.246h3.518v5.914h0.673v2.245h-3.293v-0.823
	c-0.15,0.149-0.225,0.299-0.375,0.374c-0.823,0.749-2.246,0.898-3.219,0.449c-0.749-0.374-1.123-0.974-1.123-1.796l-0.075-3.743
	v-0.299h-0.674v-2.246h3.593v4.79c0,0.225,0,0.449,0.075,0.6c0.075,0.299,0.375,0.449,0.674,0.449s0.524-0.15,0.674-0.449
	c0.075-0.075,0.075-0.225,0.075-0.375V59.514z M85.18,60.412v-0.749c0-0.449-0.299-0.749-0.674-0.749
	c-0.374,0-0.748,0.299-0.748,0.674v0.299h-2.695c-0.074-1.048,0.449-1.946,1.422-2.395c1.423-0.599,2.92-0.599,4.342,0.075
	c0.898,0.449,1.348,1.123,1.348,2.096v3.368h0.674v2.246h-3.369c0-0.3-0.074-0.524-0.074-0.898c-0.075,0.074-0.15,0.149-0.15,0.225
	c-0.897,1.048-2.545,1.048-3.442,0.599c-0.674-0.374-0.974-1.048-1.048-1.796c-0.075-1.647,0.748-2.695,2.47-2.995l1.796-0.149
	C84.955,60.412,85.029,60.412,85.18,60.412z M85.18,61.834h-0.674c-0.674,0.074-0.973,0.599-0.898,1.197
	c0.075,0.523,0.524,0.824,1.049,0.6c0.299-0.076,0.449-0.3,0.523-0.6V61.834z M22.979,61.908h-5.015c0,0.449,0,0.898,0.225,1.273
	c0.15,0.299,0.524,0.449,0.824,0.449c0.299,0,0.673-0.15,0.823-0.524c0.075-0.149,0.075-0.3,0.149-0.524h2.77
	c-0.075,0.898-0.449,1.646-1.197,2.171c-0.524,0.374-1.123,0.599-1.722,0.674c-0.823,0.149-1.722,0.075-2.545-0.149
	c-1.123-0.375-1.872-1.123-2.171-2.171c-0.374-1.198-0.374-2.396,0-3.593c0.449-1.422,1.497-2.246,2.994-2.47
	c0.674-0.075,1.347-0.075,2.021,0.15c1.497,0.449,2.32,1.422,2.62,2.994C22.904,60.786,22.904,61.311,22.979,61.908z M18.039,60.337
	h1.946c0-0.449,0-0.823-0.449-1.048c-0.375-0.225-0.749-0.225-1.048,0C18.039,59.514,18.039,59.888,18.039,60.337z M61.977,61.908
	h-5.016c0,0.449,0,0.898,0.225,1.273c0.225,0.373,0.523,0.449,0.898,0.449c0.374,0,0.674-0.225,0.823-0.524l0.149-0.449h2.77
	c-0.149,1.646-1.348,2.77-2.994,2.919c-0.823,0.075-1.572,0.075-2.32-0.225c-1.123-0.374-1.871-1.123-2.245-2.245
	c-0.374-1.198-0.374-2.32,0-3.518c0.449-1.497,1.571-2.246,3.069-2.47c0.673-0.075,1.422-0.075,2.096,0.15
	c1.422,0.449,2.17,1.422,2.47,2.77C61.977,60.711,61.977,61.311,61.977,61.908z M57.111,60.337h1.945
	c0-0.823-0.374-1.272-1.048-1.198C57.41,59.214,57.036,59.663,57.111,60.337z M80.389,61.908h-5.015c0,0.524,0,0.974,0.3,1.348
	c0.225,0.299,0.523,0.375,0.898,0.375c0.374,0,0.599-0.225,0.748-0.524l0.15-0.449h2.77c-0.076,0.897-0.449,1.646-1.198,2.171
	c-0.898,0.674-1.871,0.823-2.919,0.748c-0.449,0-0.824-0.074-1.273-0.225c-1.122-0.299-1.796-1.048-2.17-2.096
	c-0.375-1.272-0.449-2.545,0.074-3.817c0.524-1.347,1.572-2.096,2.994-2.245c0.674-0.075,1.423,0,2.096,0.149
	c1.423,0.449,2.172,1.497,2.471,2.919C80.314,60.786,80.389,61.311,80.389,61.908z M77.471,60.412c0-0.449-0.076-0.898-0.449-1.123
	c-0.375-0.225-0.749-0.225-1.123,0.075c-0.3,0.225-0.375,0.599-0.375,1.048H77.471z M32.635,57.268h0.898v-1.572
	c0-0.3,0.075-0.375,0.375-0.449l2.32-0.524v2.545H37.5v2.246h-1.272v3.144c0.075,0.524,0.449,0.749,0.898,0.674
	c0.075,0,0.149,0,0.299-0.075v1.422c0,0.674,0,0.674-0.674,0.749s-1.347,0.149-2.096,0c-0.973-0.225-1.422-0.823-1.422-1.796v-4.117
	H32.56C32.635,58.84,32.635,58.091,32.635,57.268z M47.38,65.427v-2.245h0.673v-3.593H47.38v-2.246h3.143
	c0,0.375,0.075,0.823,0.075,1.272c0.075-0.075,0.075-0.149,0.075-0.225c0.225-0.673,0.748-1.048,1.422-1.123h1.048
	c0.075,0,0.149,0.075,0.149,0.149v2.47c-0.374,0-0.822-0.075-1.197,0c-0.823,0.15-1.197,0.599-1.272,1.423v1.796h0.898v2.245
	C50.374,65.427,48.877,65.427,47.38,65.427L47.38,65.427z"/>
</svg>
